<?xml version="1.0" encoding="utf-8"?>
<!-- Generator: Adobe Illustrator 24.1.0, SVG Export Plug-In . SVG Version: 6.00 Build 0)  -->
<svg version="1.1" id="Layer_1" xmlns="http://www.w3.org/2000/svg" xmlns:xlink="http://www.w3.org/1999/xlink" x="0px" y="0px"
	 viewBox="0 0 100 100" style="enable-background:new 0 0 100 100;" xml:space="preserve">
<style type="text/css">
	.st0{fill:#3682ae;}
	.st1{fill:#3682ae;}
	.st2{fill:#FFFFFF;}
</style>
<path class="st0" d="M84.4,93.8h-2.4c-1.2,0-2.4-0.3-3.5-0.8c-1.5-0.8-3.2-1.2-4.9-1.2s-3.4,0.4-4.9,1.2c-1.1,0.5-2.3,0.8-3.5,0.8
	h-2.4c-1.7,0-3.2-0.7-4.4-1.8c-1.2-1.2-1.8-2.8-1.8-4.4v-2.4c1.7,1.5,3.9,2.4,6.2,2.4h2.4c1.7,0,3.4-0.4,4.9-1.2
	c1.1-0.5,2.3-0.8,3.5-0.8s2.4,0.3,3.5,0.8c1.5,0.8,3.2,1.2,4.9,1.2h2.4c2.3,0,4.5-0.9,6.2-2.4v2.4c0,1.7-0.7,3.2-1.8,4.4
	C87.6,93.1,86,93.8,84.4,93.8z"/>
<path class="st0" d="M78.4,72.7c1.1-0.5,2.3-0.8,3.5-0.8h2.4c1.7,0,3.2,0.7,4.4,1.8c1.2,1.2,1.8,2.8,1.8,4.4s-0.7,3.2-1.8,4.4
	c-1.2,1.2-2.8,1.8-4.4,1.8h-2.4c-1.2,0-2.4-0.3-3.5-0.8c-1.5-0.8-3.2-1.2-4.9-1.2s-3.4,0.4-4.9,1.2c-1.1,0.5-2.3,0.8-3.5,0.8h-2.4
	c-1.7,0-3.2-0.7-4.4-1.8c-1.2-1.2-1.8-2.8-1.8-4.4s0.7-3.2,1.8-4.4c1.2-1.2,2.8-1.8,4.4-1.8h2.4c1.2,0,2.4,0.3,3.5,0.8
	c1.5,0.8,3.2,1.2,4.9,1.2S76.8,73.5,78.4,72.7z"/>
<path class="st1" d="M7.8,45.3h3.3l6.1,47.1c0,0.4,0.2,0.7,0.5,1c0.3,0.3,0.7,0.4,1,0.4h36.8c0.9,1,1.9,1.8,3.2,2.3
	c1.2,0.5,2.5,0.8,3.8,0.8h2.4c1.7,0,3.4-0.4,4.9-1.2c1.1-0.5,2.3-0.8,3.5-0.8s2.4,0.3,3.5,0.8c1.5,0.8,3.2,1.2,4.9,1.2h2.4
	c2.5,0,4.9-1,6.6-2.7c1.8-1.8,2.7-4.1,2.7-6.6v-9.4c0-2.5-1-4.9-2.7-6.6c-1.8-1.8-4.1-2.7-6.6-2.7h-2.4c-1.7,0-3.4,0.4-4.9,1.2
	c-1.1,0.5-2.3,0.8-3.5,0.8s-2.4-0.3-3.5-0.8c-0.9-0.4-1.8-0.8-2.8-0.9l3-23.7h3.3c0.4,0,0.8-0.2,1.1-0.5c0.3-0.3,0.5-0.7,0.5-1.1
	v-6.2c0-0.4-0.2-0.8-0.5-1.1c-0.3-0.3-0.7-0.5-1.1-0.5h-6.2v-4.7c0-0.4-0.2-0.8-0.5-1.1l-7.4-7.4v-4.9l2.4-1.9l4,8.1l2.8-1.4
	L64.2,14l1.9-1.5h5.7c0.4,0,0.8-0.2,1.1-0.5c0.3-0.3,0.5-0.7,0.5-1.1V4.7c0-0.4-0.2-0.8-0.5-1.1c-0.3-0.3-0.7-0.5-1.1-0.5H56.2
	c-3.7,0-7.3,1.5-9.9,4.1c-2.6,2.6-4.1,6.2-4.1,9.9c0,0.4,0.2,0.8,0.5,1.1c0.3,0.3,0.7,0.5,1.1,0.5h3.1v4L42.6,27
	c-0.3,0.3-0.5,0.7-0.5,1.1v7.8h-3.1V23.4c0-0.2,0-0.4-0.1-0.6c0-0.1-0.1-0.1-0.1-0.2c0-0.1-0.1-0.2-0.1-0.2l-5.9-7.4V4.7
	c0-0.4-0.2-0.8-0.5-1.1c-0.3-0.3-0.7-0.5-1.1-0.5h-9.4c-0.4,0-0.8,0.2-1.1,0.5c-0.3,0.3-0.5,0.7-0.5,1.1v10.4l-5.9,7.4
	c0,0.1-0.1,0.2-0.1,0.2c0,0.1-0.1,0.1-0.1,0.2c-0.1,0.2-0.1,0.4-0.1,0.6v12.5H7.8c-0.4,0-0.8,0.2-1.1,0.5c-0.3,0.3-0.5,0.7-0.5,1.1
	v6.2c0,0.4,0.2,0.8,0.5,1.1C7,45.1,7.4,45.3,7.8,45.3z M84.4,93.8h-2.4c-1.2,0-2.4-0.3-3.5-0.8c-1.5-0.8-3.2-1.2-4.9-1.2
	s-3.4,0.4-4.9,1.2c-1.1,0.5-2.3,0.8-3.5,0.8h-2.4c-1.7,0-3.2-0.7-4.4-1.8c-1.2-1.2-1.8-2.8-1.8-4.4v-2.4c1.7,1.5,3.9,2.4,6.2,2.4
	h2.4c1.7,0,3.4-0.4,4.9-1.2c1.1-0.5,2.3-0.8,3.5-0.8s2.4,0.3,3.5,0.8c1.5,0.8,3.2,1.2,4.9,1.2h2.4c2.3,0,4.5-0.9,6.2-2.4v2.4
	c0,1.7-0.7,3.2-1.8,4.4C87.6,93.1,86,93.8,84.4,93.8z M78.4,72.7c1.1-0.5,2.3-0.8,3.5-0.8h2.4c1.7,0,3.2,0.7,4.4,1.8
	c1.2,1.2,1.8,2.8,1.8,4.4s-0.7,3.2-1.8,4.4c-1.2,1.2-2.8,1.8-4.4,1.8h-2.4c-1.2,0-2.4-0.3-3.5-0.8c-1.5-0.8-3.2-1.2-4.9-1.2
	s-3.4,0.4-4.9,1.2c-1.1,0.5-2.3,0.8-3.5,0.8h-2.4c-1.7,0-3.2-0.7-4.4-1.8c-1.2-1.2-1.8-2.8-1.8-4.4s0.7-3.2,1.8-4.4
	c1.2-1.2,2.8-1.8,4.4-1.8h2.4c1.2,0,2.4,0.3,3.5,0.8c1.5,0.8,3.2,1.2,4.9,1.2S76.8,73.5,78.4,72.7z M63.9,68.8h-1.4
	c-2.5,0-4.9,1-6.6,2.7c-1.8,1.8-2.7,4.1-2.7,6.6v9.4c0,1.1,0.2,2.1,0.5,3.1H20.1l-5.8-45.3h7.6v28.1c0,1.7,0.7,3.2,1.8,4.4
	c1.2,1.2,2.8,1.8,4.4,1.8h15.6c1.7,0,3.2-0.7,4.4-1.8c1.2-1.2,1.8-2.8,1.8-4.4V60.3l4.1,2c0.6,0.3,1.2,0.5,1.9,0.5
	c0.7,0,1.3,0,1.9-0.3c0.6-0.2,1.2-0.5,1.7-1c0.5-0.4,0.9-1,1.2-1.6c0.3-0.6,0.5-1.2,0.5-1.9c0-0.7,0-1.3-0.2-2
	c-0.2-0.6-0.5-1.2-1-1.7c-0.4-0.5-1-0.9-1.6-1.2L50,49v-3.7h17L63.9,68.8z M43.8,39.1h3.1V50c0,0.3,0.1,0.6,0.2,0.8
	c0.2,0.2,0.4,0.4,0.6,0.6l9.4,4.7c0.2,0.1,0.4,0.3,0.6,0.5c0.2,0.2,0.3,0.4,0.4,0.7c0.1,0.3,0.1,0.5,0.1,0.8c0,0.3-0.1,0.5-0.2,0.8
	c-0.1,0.2-0.3,0.4-0.4,0.6c-0.2,0.2-0.4,0.3-0.6,0.4c-0.2,0.1-0.5,0.1-0.7,0.1s-0.5-0.1-0.7-0.2l-6.3-3.2c-0.2-0.1-0.5-0.2-0.8-0.2
	c-0.3,0-0.5,0.1-0.7,0.2c-0.2,0.1-0.4,0.3-0.5,0.6c-0.1,0.2-0.2,0.5-0.2,0.8v15.6c0,0.8-0.3,1.6-0.9,2.2c-0.6,0.6-1.4,0.9-2.2,0.9
	V62.5h-3.1v14.1h-3.1V62.5h-3.1v14.1h-3.1V62.5h-3.1v14.1c-0.8,0-1.6-0.3-2.2-0.9c-0.6-0.6-0.9-1.4-0.9-2.2V39.1H43.8z M71.9,42.2
	H50v-3.1h21.9V42.2z M70.3,9.4h-3.1V6.2h3.1V9.4z M56.2,6.2h7.8v3.9l-6.8,5.4H45.4c0.4-2.6,1.7-5,3.7-6.7
	C51.1,7.2,53.6,6.3,56.2,6.2z M56.2,18.8v3.1H50v-3.1H56.2z M45.3,28.8l3.8-3.8h8.1l6.9,6.9v4H45.3V28.8z M22.6,17.2h7.9l3.8,4.7
	H18.9L22.6,17.2z M23.4,6.2h6.2v7.8h-6.2V6.2z M17.2,25h18.8v10.9H17.2V25z M9.4,39.1h12.5v3.1H9.4V39.1z"/>
<path class="st1" d="M85.9,75h-3.1v3.1h3.1V75z"/>
<path class="st1" d="M70.3,75h-3.1v3.1h3.1V75z"/>
<path class="st1" d="M64.1,76.6h-3.1v3.1h3.1V76.6z"/>
<path class="st1" d="M79.7,76.6h-3.1v3.1h3.1V76.6z"/>
<path class="st2" d="M63.9,68.8h-1.4c-2.5,0-4.9,1-6.6,2.7c-1.8,1.8-2.7,4.1-2.7,6.6v9.4c0,1.1,0.2,2.1,0.5,3.1H20.1l-5.8-45.3h7.6
	v28.1c0,1.7,0.7,3.2,1.8,4.4c1.2,1.2,2.8,1.8,4.4,1.8h15.6c1.7,0,3.2-0.7,4.4-1.8c1.2-1.2,1.8-2.8,1.8-4.4V60.3l4.1,2
	c0.6,0.3,1.2,0.5,1.9,0.5c0.7,0,1.3,0,1.9-0.3c0.6-0.2,1.2-0.5,1.7-1c0.5-0.4,0.9-1,1.2-1.6c0.3-0.6,0.5-1.2,0.5-1.9
	c0-0.7,0-1.3-0.2-2c-0.2-0.6-0.5-1.2-1-1.7c-0.4-0.5-1-0.9-1.6-1.2L50,49v-3.7h17L63.9,68.8z"/>
<rect x="9.4" y="39.1" class="st2" width="12.5" height="3.1"/>
<rect x="50" y="39.1" class="st2" width="21.9" height="3.1"/>
<path class="st0" d="M43.8,39.1h3.1V50c0,0.3,0.1,0.6,0.2,0.8c0.2,0.2,0.4,0.4,0.6,0.6l9.4,4.7c0.2,0.1,0.4,0.3,0.6,0.5
	c0.2,0.2,0.3,0.4,0.4,0.7c0.1,0.3,0.1,0.5,0.1,0.8c0,0.3-0.1,0.5-0.2,0.8c-0.1,0.2-0.3,0.4-0.4,0.6c-0.2,0.2-0.4,0.3-0.6,0.4
	c-0.2,0.1-0.5,0.1-0.7,0.1s-0.5-0.1-0.7-0.2l-6.3-3.2c-0.2-0.1-0.5-0.2-0.8-0.2c-0.3,0-0.5,0.1-0.7,0.2c-0.2,0.1-0.4,0.3-0.5,0.6
	c-0.1,0.2-0.2,0.5-0.2,0.8v15.6c0,0.8-0.3,1.6-0.9,2.2c-0.6,0.6-1.4,0.9-2.2,0.9V62.5h-3.1v14.1h-3.1V62.5h-3.1v14.1h-3.1V62.5h-3.1
	v14.1c-0.8,0-1.6-0.3-2.2-0.9c-0.6-0.6-0.9-1.4-0.9-2.2V39.1H43.8z"/>
<polygon class="st2" points="22.6,17.2 30.5,17.2 34.2,21.9 18.9,21.9 "/>
<rect x="23.4" y="6.2" class="st0" width="6.2" height="7.8"/>
<rect x="17.2" y="25" class="st2" width="18.8" height="10.9"/>
<rect x="67.2" y="6.2" class="st0" width="3.1" height="3.1"/>
<path class="st2" d="M56.2,6.2h7.8v3.9l-6.8,5.4H45.4c0.4-2.6,1.7-5,3.7-6.7C51.1,7.2,53.6,6.3,56.2,6.2z"/>
<rect x="50" y="18.8" class="st2" width="6.2" height="3.1"/>
<polygon class="st2" points="45.3,28.8 49.1,25 57.2,25 64.1,31.9 64.1,35.9 45.3,35.9 "/>
</svg>
