<?xml version="1.0" encoding="utf-8"?>
<!-- Generator: Adobe Illustrator 24.1.0, SVG Export Plug-In . SVG Version: 6.00 Build 0)  -->
<svg version="1.1" id="Layer_1" xmlns="http://www.w3.org/2000/svg" xmlns:xlink="http://www.w3.org/1999/xlink" x="0px" y="0px"
	 viewBox="0 0 102 102" style="enable-background:new 0 0 102 102;" xml:space="preserve">
<style type="text/css">
	.st0{fill:#E6DFED;}
	.st1{fill:#FFFFFF;}
	.st2{fill:#3682ae;}
</style>
<path class="st0" d="M68.5,89.2c0,0.8-0.3,1.7-0.9,2.3c-0.6,0.6-1.4,0.9-2.3,0.9c-0.8,0-1.7-0.3-2.3-0.9c-0.6-0.6-0.9-1.4-0.9-2.3
	V63.8h6.4V89.2z"/>
<path class="st1" d="M95.6,68.5c0,1.3-0.5,2.5-1.4,3.4s-2.1,1.4-3.4,1.4H71.7V47.8c1.2,0,2.4-0.3,3.5-0.8c1.1-0.5,2-1.3,2.8-2.3
	l7.5,3c0.2,0.1,0.4,0.1,0.6,0.1c0.2,0,0.4-0.1,0.6-0.1c0.2-0.1,0.4-0.2,0.5-0.4c0.1-0.2,0.3-0.4,0.3-0.6l1.3-3.9l1.8,0.2
	c0.2,0,0.5,0,0.7-0.1c0.2-0.1,0.4-0.2,0.6-0.3c0.2-0.1,0.3-0.3,0.4-0.5c0.1-0.2,0.1-0.4,0.1-0.7v-6.4c0-0.2,0-0.4-0.1-0.7
	c-0.1-0.2-0.2-0.4-0.4-0.5c-0.2-0.1-0.4-0.3-0.6-0.3c-0.2-0.1-0.4-0.1-0.7-0.1l-1.8,0.2l-1.3-3.9c-0.1-0.2-0.2-0.4-0.3-0.6
	c-0.1-0.2-0.3-0.3-0.5-0.4c-0.2-0.1-0.4-0.1-0.6-0.1c-0.2,0-0.4,0-0.6,0.1l-7.5,3c-0.7-1-1.7-1.7-2.8-2.3c-1.1-0.5-2.3-0.8-3.5-0.8
	V14.3c0-0.3-0.1-0.6-0.2-0.8c-0.2-0.3-0.4-0.5-0.7-0.6c-0.3-0.1-0.6-0.2-0.9-0.2c-0.3,0-0.6,0.1-0.8,0.3c-5.1,4-9.1,9.2-11.7,15.1
	c-2.4-1.1-5.1-1.4-7.7-0.7c-2.6,0.7-4.8,2.2-6.3,4.4c-0.1,0-0.3,0-0.4,0c-0.2,0-0.4,0-0.5,0c-0.6-1.6-1.5-3-2.8-4.1
	s-2.8-1.8-4.5-2.1c-1.7-0.3-3.4-0.2-5,0.4c-1.6,0.6-3,1.6-4.1,2.9c-1.1,1.3-1.8,2.9-2.1,4.5c-0.3,1.7-0.1,3.4,0.5,5
	c0.6,1.6,1.6,3,2.9,4c1.3,1.1,2.9,1.8,4.5,2c0.3,2.2,1.3,4.3,2.8,6c1.5,1.7,3.5,2.8,5.7,3.4c2.2,0.5,4.5,0.4,6.6-0.4
	c2.1-0.8,3.9-2.2,5.2-4.1c0.1,0,0.3,0,0.4,0c0.5,0,1.1,0,1.6-0.1v12.9c0,0.4,0.2,0.8,0.5,1.1s0.7,0.5,1.1,0.5H59v9.6H23.9
	c-1.3,0-2.5-0.5-3.4-1.4c-0.9-0.9-1.4-2.1-1.4-3.4v-6.4c0-0.3-0.1-0.6-0.2-0.8s-0.4-0.5-0.6-0.6l-4.4-2.2c-2.2-1.1-4.1-2.8-5.5-5
	c-1.3-2.1-2-4.6-2-7.1v-10c0-2.5,0.7-5,2-7.1c1.3-2.1,3.2-3.9,5.5-5l4.4-2.2c0.3-0.1,0.5-0.3,0.6-0.6c0.2-0.3,0.2-0.5,0.2-0.8v-6.4
	c0-1.3,0.5-2.5,1.4-3.4c0.9-0.9,2.1-1.4,3.4-1.4h66.9c1.3,0,2.5,0.5,3.4,1.4c0.9,0.9,1.4,2.1,1.4,3.4V68.5z"/>
<path class="st2" d="M90.8,6.4H23.9c-2.1,0-4.1,0.8-5.6,2.3c-1.5,1.5-2.3,3.5-2.3,5.6v5.4l-3.5,1.8c-2.8,1.4-5.1,3.5-6.7,6.1
	c-1.6,2.6-2.5,5.7-2.5,8.8v21.7c0,1.5,0.4,2.9,1,4.3c0.7,1.3,1.6,2.5,2.8,3.4l2.5,1.9v2.4c0,3.4,1.3,6.6,3.7,9
	c2.4,2.4,5.6,3.7,9,3.7H59v6.4c0,1.7,0.7,3.3,1.9,4.5c1.2,1.2,2.8,1.9,4.5,1.9c1.7,0,3.3-0.7,4.5-1.9c1.2-1.2,1.9-2.8,1.9-4.5v-6.4
	h19.1c2.1,0,4.1-0.8,5.6-2.3c1.5-1.5,2.3-3.5,2.3-5.6V14.3c0-2.1-0.8-4.1-2.3-5.6C95,7.2,93,6.4,90.8,6.4z M22.3,79.7
	c-2.5,0-5-1-6.8-2.8s-2.8-4.2-2.8-6.8v-3.2c0-0.2-0.1-0.5-0.2-0.7c-0.1-0.2-0.3-0.4-0.5-0.6l-3.2-2.4c-0.8-0.6-1.4-1.4-1.9-2.3
	c-0.4-0.9-0.7-1.9-0.7-2.8v-1.9c1.6,2.2,3.6,3.9,6,5.1l3.5,1.8v5.4c0,2.1,0.8,4.1,2.3,5.6c1.5,1.5,3.5,2.3,5.6,2.3H59v3.2H22.3z
	 M47,32.6c0.9-0.9,2-1.6,3.2-1.9s2.5-0.5,3.7-0.3c1.2,0.2,2.4,0.7,3.4,1.4c1,0.7,1.8,1.7,2.4,2.9s0.9,2.4,0.8,3.6
	c0,1.3-0.3,2.5-0.9,3.6c-0.6,1.1-1.4,2.1-2.5,2.8c-1,0.7-2.2,1.2-3.5,1.4c0.8-2.7,0.5-5.6-0.7-8.1C51.8,35.5,49.6,33.6,47,32.6z
	 M27.1,35.1c0-1.3,0.4-2.5,1.1-3.5c0.7-1,1.7-1.9,2.9-2.3c1.2-0.5,2.4-0.6,3.7-0.4c1.2,0.2,2.4,0.9,3.3,1.7c0.9,0.9,1.5,2,1.7,3.3
	c0.2,1.2,0.1,2.5-0.4,3.7c-0.5,1.2-1.3,2.2-2.3,2.9c-1,0.7-2.3,1.1-3.5,1.1c-1.7,0-3.3-0.7-4.5-1.9C27.8,38.4,27.1,36.8,27.1,35.1z
	 M43,35.1c1.5,0,3,0.4,4.3,1.2c1.3,0.8,2.3,2,2.9,3.3s0.9,2.9,0.7,4.4c-0.2,1.5-0.8,2.9-1.8,4.1c-1,1.2-2.3,2-3.7,2.5
	c-1.4,0.5-3,0.5-4.5,0.1c-1.5-0.4-2.8-1.2-3.8-2.3c-1-1.1-1.7-2.5-2-4c2.2-0.4,4.2-1.6,5.6-3.3C42.2,39.5,43,37.3,43,35.1z
	 M57.4,48.3c1.7-0.8,3.1-2,4.2-3.4c1.1-1.5,1.8-3.2,2.1-5c0.3-1.8,0.1-3.7-0.5-5.4c-0.6-1.7-1.6-3.3-3-4.5c1.9-4.6,4.8-8.8,8.4-12.2
	v42.8H57.4V48.3z M71.7,31.9c1.3,0,2.5,0.5,3.4,1.4c0.9,0.9,1.4,2.1,1.4,3.4v3.2c0,1.3-0.5,2.5-1.4,3.4c-0.9,0.9-2.1,1.4-3.4,1.4
	V31.9z M68.5,89.2c0,0.8-0.3,1.7-0.9,2.3c-0.6,0.6-1.4,0.9-2.3,0.9c-0.8,0-1.7-0.3-2.3-0.9c-0.6-0.6-0.9-1.4-0.9-2.3V63.8h6.4V89.2z
	 M90.8,79.7H71.7v-3.2h19.1c1.7,0,3.4-0.6,4.8-1.6v0c0,1.3-0.5,2.5-1.4,3.4C93.3,79.2,92.1,79.7,90.8,79.7z M95.6,68.5
	c0,1.3-0.5,2.5-1.4,3.4s-2.1,1.4-3.4,1.4H71.7V47.8c1.2,0,2.4-0.3,3.5-0.8c1.1-0.5,2-1.3,2.8-2.3l7.5,3c0.2,0.1,0.4,0.1,0.6,0.1
	c0.2,0,0.4-0.1,0.6-0.1c0.2-0.1,0.4-0.2,0.5-0.4c0.1-0.2,0.3-0.4,0.3-0.6l1.3-3.9l1.8,0.2c0.2,0,0.5,0,0.7-0.1
	c0.2-0.1,0.4-0.2,0.6-0.3c0.2-0.1,0.3-0.3,0.4-0.5c0.1-0.2,0.1-0.4,0.1-0.7v-6.4c0-0.2,0-0.4-0.1-0.7c-0.1-0.2-0.2-0.4-0.4-0.5
	c-0.2-0.1-0.4-0.3-0.6-0.3c-0.2-0.1-0.4-0.1-0.7-0.1l-1.8,0.2l-1.3-3.9c-0.1-0.2-0.2-0.4-0.3-0.6c-0.1-0.2-0.3-0.3-0.5-0.4
	c-0.2-0.1-0.4-0.1-0.6-0.1c-0.2,0-0.4,0-0.6,0.1l-7.5,3c-0.7-1-1.7-1.7-2.8-2.3c-1.1-0.5-2.3-0.8-3.5-0.8V14.3
	c0-0.3-0.1-0.6-0.2-0.8c-0.2-0.3-0.4-0.5-0.7-0.6c-0.3-0.1-0.6-0.2-0.9-0.2c-0.3,0-0.6,0.1-0.8,0.3c-5.1,4-9.1,9.2-11.7,15.1
	c-2.4-1.1-5.1-1.4-7.7-0.7c-2.6,0.7-4.8,2.2-6.3,4.4c-0.1,0-0.3,0-0.4,0c-0.2,0-0.4,0-0.5,0c-0.6-1.6-1.5-3-2.8-4.1
	s-2.8-1.8-4.5-2.1c-1.7-0.3-3.4-0.2-5,0.4c-1.6,0.6-3,1.6-4.1,2.9c-1.1,1.3-1.8,2.9-2.1,4.5c-0.3,1.7-0.1,3.4,0.5,5
	c0.6,1.6,1.6,3,2.9,4c1.3,1.1,2.9,1.8,4.5,2c0.3,2.2,1.3,4.3,2.8,6c1.5,1.7,3.5,2.8,5.7,3.4c2.2,0.5,4.5,0.4,6.6-0.4
	c2.1-0.8,3.9-2.2,5.2-4.1c0.1,0,0.3,0,0.4,0c0.5,0,1.1,0,1.6-0.1v12.9c0,0.4,0.2,0.8,0.5,1.1s0.7,0.5,1.1,0.5H59v9.6H23.9
	c-1.3,0-2.5-0.5-3.4-1.4c-0.9-0.9-1.4-2.1-1.4-3.4v-6.4c0-0.3-0.1-0.6-0.2-0.8s-0.4-0.5-0.6-0.6l-4.4-2.2c-2.2-1.1-4.1-2.8-5.5-5
	c-1.3-2.1-2-4.6-2-7.1v-10c0-2.5,0.7-5,2-7.1c1.3-2.1,3.2-3.9,5.5-5l4.4-2.2c0.3-0.1,0.5-0.3,0.6-0.6c0.2-0.3,0.2-0.5,0.2-0.8v-6.4
	c0-1.3,0.5-2.5,1.4-3.4c0.9-0.9,2.1-1.4,3.4-1.4h66.9c1.3,0,2.5,0.5,3.4,1.4c0.9,0.9,1.4,2.1,1.4,3.4V68.5z M85.7,42.4l-0.6,1.7
	l-5.7-2.3c0-0.1,0-0.2,0.1-0.2L85.7,42.4z M79.7,38.4v-0.4l9.6-1.2v2.8L79.7,38.4z M79.5,34.9c0-0.1,0-0.2-0.1-0.2l5.7-2.3l0.6,1.7
	L79.5,34.9z"/>
<path class="st2" d="M14.3,30.3c-1.3,0-2.5,0.5-3.4,1.4c-0.9,0.9-1.4,2.1-1.4,3.4v12.8c0,1.3,0.5,2.5,1.4,3.4
	c0.9,0.9,2.1,1.4,3.4,1.4c1.3,0,2.5-0.5,3.4-1.4c0.9-0.9,1.4-2.1,1.4-3.4V35.1c0-1.3-0.5-2.5-1.4-3.4C16.8,30.8,15.6,30.3,14.3,30.3
	z M14.3,33.5c0.4,0,0.8,0.2,1.1,0.5c0.3,0.3,0.5,0.7,0.5,1.1v1.9c-1-0.4-2.2-0.4-3.2,0v-1.9c0-0.4,0.2-0.8,0.5-1.1
	C13.5,33.6,13.9,33.5,14.3,33.5z M15.9,47.8c0,0.4-0.2,0.8-0.5,1.1c-0.3,0.3-0.7,0.5-1.1,0.5c-0.4,0-0.8-0.2-1.1-0.5
	c-0.3-0.3-0.5-0.7-0.5-1.1v-6.4c0-0.4,0.2-0.8,0.5-1.1c0.3-0.3,0.7-0.5,1.1-0.5c0.4,0,0.8,0.2,1.1,0.5c0.3,0.3,0.5,0.7,0.5,1.1V47.8
	z"/>
<path class="st2" d="M65.3,89.2c0.9,0,1.6-0.7,1.6-1.6c0-0.9-0.7-1.6-1.6-1.6c-0.9,0-1.6,0.7-1.6,1.6C63.8,88.5,64.5,89.2,65.3,89.2
	z"/>
<path class="st2" d="M25.5,60.7v2.6c0,1.4,0.6,2.7,1.5,3.7c1,1,2.3,1.5,3.7,1.5h8.6c1.3,0,2.5-0.5,3.4-1.3c1-0.8,1.6-2,1.8-3.2
	c0.2-1.2-0.1-2.5-0.8-3.6c-0.7-1.1-1.7-1.8-2.9-2.2l-8.6-2.6c-0.8-0.2-1.6-0.3-2.4-0.1c-0.8,0.1-1.6,0.5-2.2,1
	c-0.7,0.5-1.2,1.1-1.6,1.9C25.7,59.1,25.5,59.9,25.5,60.7z M28.7,60.7c0-0.5,0.2-1.1,0.6-1.5c0.4-0.4,0.9-0.6,1.5-0.6
	c0.2,0,0.4,0,0.6,0.1l8.6,2.6c0.5,0.1,0.9,0.5,1.1,0.9c0.3,0.4,0.4,0.9,0.3,1.4c-0.1,0.5-0.3,0.9-0.7,1.3s-0.9,0.5-1.3,0.5h-8.6
	c-0.5,0-1.1-0.2-1.5-0.6c-0.4-0.4-0.6-0.9-0.6-1.5V60.7z"/>
<path class="st2" d="M46.5,14.4l-8-1.6c-0.2,0-0.5,0-0.7,0c-0.2,0.1-0.4,0.2-0.6,0.3s-0.3,0.3-0.4,0.6c-0.1,0.2-0.2,0.4-0.2,0.7v6.4
	c0,0.3,0.1,0.7,0.3,0.9c0.2,0.3,0.5,0.5,0.8,0.6l4.8,1.6c0.4,0.1,0.8,0.1,1.1,0c0.4-0.1,0.6-0.4,0.8-0.8l3.2-6.4
	c0.1-0.2,0.2-0.5,0.2-0.7c0-0.2-0.1-0.5-0.2-0.7c-0.1-0.2-0.3-0.4-0.5-0.6C47,14.5,46.8,14.4,46.5,14.4z M42.2,20.4l-2.4-0.8v-3.3
	l4,0.8L42.2,20.4z"/>
<path class="st2" d="M56.2,16.4l-3.2,3.2l2.3,2.3l3.2-3.2L56.2,16.4z"/>
<path class="st2" d="M26,46.7l-3.2,3.2l2.3,2.3l3.2-3.2L26,46.7z"/>
<path class="st2" d="M48.9,57.8l-2.3,2.3l3.2,3.2l2.3-2.3L48.9,57.8z"/>
<path class="st2" d="M29.8,14.8l-2.3,2.3l3.2,3.2L33,18L29.8,14.8z"/>
<path class="st0" d="M22.3,79.7c-2.5,0-5-1-6.8-2.8s-2.8-4.2-2.8-6.8v-3.2c0-0.2-0.1-0.5-0.2-0.7c-0.1-0.2-0.3-0.4-0.5-0.6l-3.2-2.4
	c-0.8-0.6-1.4-1.4-1.9-2.3c-0.4-0.9-0.7-1.9-0.7-2.8v-1.9c1.6,2.2,3.6,3.9,6,5.1l3.5,1.8v5.4c0,2.1,0.8,4.1,2.3,5.6
	c1.5,1.5,3.5,2.3,5.6,2.3H59v3.2H22.3z"/>
<path class="st0" d="M90.8,79.7H71.7v-3.2h19.1c1.7,0,3.4-0.6,4.8-1.6v0c0,1.3-0.5,2.5-1.4,3.4C93.3,79.2,92.1,79.7,90.8,79.7z"/>
<path class="st1" d="M47,32.6c0.9-0.9,2-1.6,3.2-1.9s2.5-0.5,3.7-0.3c1.2,0.2,2.4,0.7,3.4,1.4c1,0.7,1.8,1.7,2.4,2.9
	s0.9,2.4,0.8,3.6c0,1.3-0.3,2.5-0.9,3.6c-0.6,1.1-1.4,2.1-2.5,2.8c-1,0.7-2.2,1.2-3.5,1.4c0.8-2.7,0.5-5.6-0.7-8.1
	C51.8,35.5,49.6,33.6,47,32.6z"/>
<path class="st1" d="M27.1,35.1c0-1.3,0.4-2.5,1.1-3.5c0.7-1,1.7-1.9,2.9-2.3c1.2-0.5,2.4-0.6,3.7-0.4c1.2,0.2,2.4,0.9,3.3,1.7
	c0.9,0.9,1.5,2,1.7,3.3c0.2,1.2,0.1,2.5-0.4,3.7c-0.5,1.2-1.3,2.2-2.3,2.9c-1,0.7-2.3,1.1-3.5,1.1c-1.7,0-3.3-0.7-4.5-1.9
	C27.8,38.4,27.1,36.8,27.1,35.1z"/>
<path class="st1" d="M43,35.1c1.5,0,3,0.4,4.3,1.2c1.3,0.8,2.3,2,2.9,3.3s0.9,2.9,0.7,4.4c-0.2,1.5-0.8,2.9-1.8,4.1
	c-1,1.2-2.3,2-3.7,2.5c-1.4,0.5-3,0.5-4.5,0.1c-1.5-0.4-2.8-1.2-3.8-2.3c-1-1.1-1.7-2.5-2-4c2.2-0.4,4.2-1.6,5.6-3.3
	C42.2,39.5,43,37.3,43,35.1z"/>
<path class="st1" d="M71.7,31.9c1.3,0,2.5,0.5,3.4,1.4c0.9,0.9,1.4,2.1,1.4,3.4v3.2c0,1.3-0.5,2.5-1.4,3.4c-0.9,0.9-2.1,1.4-3.4,1.4
	V31.9z"/>
<path class="st1" d="M57.4,48.3c1.7-0.8,3.1-2,4.2-3.4c1.1-1.5,1.8-3.2,2.1-5c0.3-1.8,0.1-3.7-0.5-5.4c-0.6-1.7-1.6-3.3-3-4.5
	c1.9-4.6,4.8-8.8,8.4-12.2v42.8H57.4V48.3z"/>
<path class="st0" d="M85.7,42.4l-0.6,1.7l-5.7-2.3c0-0.1,0-0.2,0.1-0.2L85.7,42.4z"/>
<polygon class="st0" points="79.7,38.4 79.7,38.1 89.3,36.9 89.3,39.6 "/>
<path class="st0" d="M79.5,34.9c0-0.1,0-0.2-0.1-0.2l5.7-2.3l0.6,1.7L79.5,34.9z"/>
<polygon class="st0" points="42.2,20.4 39.8,19.6 39.8,16.3 43.9,17.1 "/>
</svg>
